PathFileType	4	(X/Y/Z)	D:\TRACE\spotREDO_2-26-24\spot_justBody_Motion_1_3-platform.trc
DataRate	CameraRate	NumFrames	NumMarkers	Units	OrigDataRate	OrigDataStartFrame	OrigNumFrames
100.00	100.00	      69	5	mm	100.00	1	      7000
Frame#	Time	Left_Front			Right_Front			Left_Aft			Right_Aft			Post			
		X1	Y1	Z1	X2	Y2	Z2	X3	Y3	Z3	X4	Y4	Z4	X5	Y5	Z5	

1	0.000	-696.88818	-3.76045	-575.55957	718.03052	5.25491	-491.05807	-768.12366	4.95372	643.40198	802.16150	11.97842	646.35431	12.44965	623.48029	-982.18579	
2	0.010	-696.92059	-3.79401	-575.56732	718.08569	5.23601	-491.14435	-768.14355	4.84167	643.37952	802.47919	11.86260	646.34528	12.51173	623.36578	-982.18555	
3	0.020	-696.92926	-3.82865	-575.57507	717.96417	5.13568	-491.22873	-768.06226	4.77835	643.41730	802.36346	11.88666	646.42163	12.51100	623.31775	-982.16327	
4	0.030	-696.92419	-3.79677	-575.59583	717.98798	5.10208	-491.24033	-768.05371	4.72904	643.37158	802.46954	11.84739	646.34589	12.60125	623.28400	-982.26764	
5	0.040	-696.86273	-3.77444	-575.56616	717.95398	5.14004	-491.25177	-768.08942	4.77897	643.41949	802.38525	11.90549	646.36249	12.44800	623.44897	-982.17468	
6	0.050	-696.86658	-3.74828	-575.54395	718.03717	5.31989	-491.08984	-768.12054	4.95658	643.42755	802.32660	11.84293	646.28528	12.49802	623.40564	-982.26855	
7	0.060	-696.87598	-3.73013	-575.56036	718.03973	5.33449	-491.02542	-768.11627	4.95998	643.48468	802.24634	11.96361	646.33862	12.50729	623.38788	-982.22400	
8	0.070	-696.91321	-3.81682	-575.57312	718.02551	5.21385	-491.19302	-768.10754	4.87695	643.42133	802.30078	11.93311	646.30731	12.46392	623.42755	-982.09033	
9	0.080	-696.95673	-3.81111	-575.57629	717.97400	5.11905	-491.16904	-768.13818	4.78380	643.41785	802.31750	11.96857	646.35413	12.51798	623.39276	-982.04584	
10	0.090	-696.90430	-3.80861	-575.56268	717.95099	5.09831	-491.27158	-768.12067	4.80278	643.37805	802.37018	11.94665	646.27753	12.49290	623.35254	-982.03168	
11	0.100	-696.88776	-3.78723	-575.56403	718.00592	5.22157	-491.24734	-768.12238	4.89349	643.42126	802.33374	11.97049	646.22876	12.45287	623.42157	-982.00891	
12	0.110	-696.86877	-3.74727	-575.56384	718.02942	5.29683	-491.08661	-768.11871	4.98585	643.49194	802.26996	12.00899	646.32355	11.88091	623.49316	-982.01227	
13	0.120	-696.91882	-3.74364	-575.57697	718.03766	5.27886	-491.11136	-767.76196	4.06769	643.41754	802.36206	11.93701	646.30530	12.15371	623.53192	-982.10663	
14	0.130	-696.94116	-3.80297	-575.56897	717.99725	5.19207	-491.18738	-767.91772	4.35441	643.39648	802.30182	11.98307	646.35034	12.48535	623.44153	-982.09424	
15	0.140	-696.92194	-3.79596	-575.59998	717.95276	5.09268	-491.27246	-767.97284	4.47146	643.34509	802.33356	11.93879	646.26398	12.51338	623.33685	-982.19910	
16	0.150	-696.88104	-3.78221	-575.56189	717.96637	5.12180	-491.21024	-767.97595	4.53283	643.39038	802.29999	11.97360	646.35211	12.50157	623.45331	-982.21436	
17	0.160	-696.89246	-3.77046	-575.55487	718.06378	5.25657	-491.20633	-768.01318	4.67118	643.47375	802.33282	11.94519	646.35217	12.62293	623.42871	-982.22083	
18	0.170	-696.88306	-3.74820	-575.53760	718.08337	5.35211	-491.07742	-768.14026	4.98216	643.42834	802.27838	11.95723	646.38538	12.69540	623.36267	-982.21954	
19	0.180	-696.90338	-3.80520	-575.56555	718.03564	5.23594	-491.14990	-768.01587	4.68746	643.40570	802.38043	11.95808	646.28796	12.77902	623.33234	-982.12372	
20	0.190	-696.92328	-3.80833	-575.57178	717.96039	5.16867	-491.20328	-768.10223	4.74772	643.39972	802.36908	11.93576	646.31354	12.75507	623.36407	-982.09637	
21	0.200	-696.90631	-3.79797	-575.58472	717.97491	5.08604	-491.14777	-768.09222	4.70875	643.48602	802.34937	11.93111	646.31860	12.70325	623.38495	-982.09204	
22	0.210	-696.87122	-3.80108	-575.54407	717.98566	5.12355	-491.21445	-768.04401	4.74763	643.46790	802.30762	11.87284	646.34479	12.75167	623.38861	-982.06909	
23	0.220	-696.87360	-3.77027	-575.55310	718.04187	5.24015	-491.12878	-768.08392	4.83056	643.51685	802.24988	11.89340	646.45300	12.70300	623.41107	-982.04761	
24	0.230	-696.87085	-3.74729	-575.54260	718.03027	5.33495	-491.12875	-768.04346	4.85326	643.48004	802.36322	11.88070	646.33124	12.73733	623.41699	-982.14496	
25	0.240	-696.89148	-3.78952	-575.57343	718.00415	5.22252	-491.16397	-768.13049	4.76907	643.49420	802.25525	11.98412	646.42157	12.71462	623.39203	-982.06104	
26	0.250	-696.88281	-3.81597	-575.57147	717.98071	5.15185	-491.19489	-768.09088	4.71520	643.46185	802.48041	11.88032	646.30865	12.71116	623.38336	-982.11841	
27	0.260	-696.91394	-3.81214	-575.58093	717.97791	5.11828	-491.15240	-768.04657	4.67611	643.43750	802.36975	11.92727	646.33472	12.74164	623.35565	-982.11237	
28	0.270	-696.86646	-3.80754	-575.55005	717.99017	5.20126	-491.20670	-768.12897	4.76530	643.48712	802.37378	11.88192	646.32306	12.76395	623.33966	-982.10339	
29	0.280	-696.86877	-3.77438	-575.54559	718.01874	5.28380	-491.10712	-768.07654	4.81699	643.50165	802.33417	11.98125	646.35858	12.79566	623.32684	-982.19006	
30	0.290	-696.91876	-3.75534	-575.58423	718.02283	5.22227	-491.19025	-767.99426	4.90642	643.52600	802.35278	11.95332	646.34827	12.74142	623.33551	-982.19446	
31	0.300	-696.91174	-3.80557	-575.59180	717.97180	5.19242	-491.24432	-768.12933	4.72712	643.41876	802.27985	11.98431	646.30804	12.77974	623.37982	-982.16553	
32	0.310	-696.89709	-3.83092	-575.59216	717.92157	5.09019	-491.16342	-768.06927	4.68885	643.43030	802.39642	11.91660	646.31958	12.75807	623.35779	-982.18616	
33	0.320	-696.91052	-3.78479	-575.55267	717.98535	5.14996	-491.24518	-768.08557	4.69648	643.43817	802.43134	11.89136	646.38092	12.73063	623.36530	-982.17853	
34	0.330	-696.87732	-3.80466	-575.56372	718.03931	5.25676	-491.09534	-768.13068	4.81848	643.49512	802.38861	11.87873	646.34515	12.73855	623.36591	-982.21228	
35	0.340	-696.74493	-3.87310	-575.58472	718.08990	5.27029	-491.08521	-768.11267	4.89191	643.46027	802.44446	11.85375	646.39258	12.78076	623.36346	-982.18335	
36	0.350	-696.77124	-3.87630	-575.62866	718.04669	5.21812	-491.15146	-768.19067	4.88962	643.29816	802.26636	11.82587	646.52545	12.78030	623.35504	-982.15314	
37	0.360	-696.76727	-3.84651	-575.61841	717.98944	5.13279	-491.19351	-768.13263	4.74147	643.30536	802.17310	11.93982	646.78198	12.74380	623.35095	-982.08765	
38	0.370	-696.84857	-3.81747	-575.62207	717.97992	5.09220	-491.18503	-768.10730	4.84362	643.43073	802.20953	11.89616	646.81500	12.68386	623.39008	-982.09894	
39	0.380	-696.78644	-3.89892	-575.65564	717.96948	5.10808	-491.21201	-768.17310	4.79907	643.38336	802.25159	11.89779	646.76874	12.60296	623.34607	-982.06171	
40	0.390	-696.81378	-3.83148	-575.64850	718.01660	5.20029	-491.16330	-768.15015	4.90136	643.39331	802.23792	12.02296	646.79034	12.55154	623.33813	-982.11792	
41	0.400	-696.78516	-3.82410	-575.62048	718.06384	5.23620	-491.16672	-768.15454	4.87717	643.39734	802.31036	12.01589	646.78967	12.55853	623.33057	-982.11200	
42	0.410	-696.79950	-3.83953	-575.65863	718.00696	5.19483	-491.15628	-768.19739	4.85751	643.42010	802.25000	11.97226	646.80786	12.51161	623.38922	-982.17059	
43	0.420	-696.78516	-3.87801	-575.65009	718.00958	5.13231	-491.16776	-768.12939	4.77141	643.41132	802.25336	11.95044	646.76324	12.19963	623.47705	-982.19763	
44	0.430	-696.81232	-3.80671	-575.62445	717.94373	5.09315	-491.23410	-768.11218	4.78174	643.42926	802.23492	11.94703	646.80029	11.98991	623.39166	-982.17529	
45	0.440	-696.78265	-3.85641	-575.63812	718.02911	5.14449	-491.23431	-768.13519	4.82977	643.40436	802.27686	11.98865	646.79327	11.65498	623.59778	-982.31067	
46	0.450	-696.81567	-3.80316	-575.63190	717.99585	5.20619	-491.16809	-768.15070	4.93094	643.40314	802.21814	12.08883	646.77734	12.50797	623.38519	-982.23016	
47	0.460	-696.78033	-3.83571	-575.62811	717.96246	5.15352	-491.22714	-768.14868	4.87414	643.39807	802.27917	12.00760	646.78424	12.53685	623.35651	-982.18036	
48	0.470	-696.77582	-3.83983	-575.62762	717.97760	5.15941	-491.20825	-768.13318	4.76577	643.38824	802.25488	11.92420	646.76337	12.51947	623.36902	-982.14966	
49	0.480	-696.77435	-3.87684	-575.64978	717.92755	5.10146	-491.21362	-768.08136	4.74724	643.39764	802.25897	11.94420	646.79852	12.53777	623.36316	-982.07080	
50	0.490	-696.78363	-3.87740	-575.64337	718.00604	5.11913	-491.22357	-768.11957	4.76485	643.38129	802.25549	11.87990	646.79865	12.55807	623.34418	-982.11914	
51	0.500	-696.78870	-3.84792	-575.63531	717.97546	5.16339	-491.21051	-768.18610	4.86700	643.43884	802.24933	11.92671	646.80908	12.50349	623.35046	-982.12134	
52	0.510	-696.76758	-3.88793	-575.63538	718.05676	5.22231	-491.14856	-768.20483	4.91775	643.39929	802.29950	12.00867	646.76123	12.52636	623.37451	-982.12732	
53	0.520	-696.79340	-3.85614	-575.61438	718.01385	5.21556	-491.16000	-768.16052	4.90644	643.44800	802.20306	12.01044	646.77997	12.49886	623.37598	-982.13556	
54	0.530	-696.78259	-3.85640	-575.64380	717.98608	5.14962	-491.24930	-768.16913	4.82853	643.40356	802.22516	11.92939	646.76611	12.57839	623.37805	-982.14618	
55	0.540	-696.79089	-3.82123	-575.62054	717.98163	5.15043	-491.16675	-768.13928	4.76174	643.43665	802.21887	11.93338	646.80731	12.50873	623.39899	-982.15930	
56	0.550	-696.76367	-3.87642	-575.63904	718.03400	5.17646	-491.20654	-768.16882	4.85661	643.37866	802.25391	11.91670	646.77130	12.54964	623.35907	-982.15607	
57	0.560	-696.79224	-3.83293	-575.64227	718.01190	5.17081	-491.20047	-768.16693	4.90354	643.43298	802.24561	11.97303	646.80688	12.54727	623.35284	-982.14063	
58	0.570	-696.79065	-3.84224	-575.61761	718.09930	5.21569	-491.16107	-768.13690	4.90296	643.40881	802.30719	12.03092	646.80780	12.51652	623.39099	-982.17291	
59	0.580	-696.75500	-3.82220	-575.61768	718.00873	5.20570	-491.14969	-768.16418	4.88997	643.43195	802.19983	11.97296	646.79877	12.50071	623.36438	-982.13062	
60	0.590	-696.72089	-3.85461	-575.62891	717.99231	5.16844	-491.21149	-768.13092	4.83104	643.41669	802.23242	11.93872	646.76508	12.53228	623.38263	-982.09827	
61	0.600	-696.81610	-3.81876	-575.65631	717.96716	5.17747	-491.25211	-768.13422	4.82107	643.40747	802.16791	11.96086	646.76538	12.50822	623.37189	-982.12427	
62	0.610	-696.79132	-3.84385	-575.61737	718.01154	5.16882	-491.17944	-768.11707	4.87267	643.42242	802.21112	12.02173	646.74261	12.47685	623.37213	-982.10864	
63	0.620	-696.78314	-3.83601	-575.66333	718.01105	5.20967	-491.15353	-768.18158	4.94053	643.41742	802.21936	12.09941	646.72351	12.44561	623.40076	-982.09558	
64	0.630	-696.76642	-3.82413	-575.64160	717.98346	5.18522	-491.20911	-768.19977	4.92402	643.44183	802.27454	11.99681	646.77570	12.44626	623.41827	-982.07544	
65	0.640	-696.79541	-3.85508	-575.64417	717.95508	5.16677	-491.19562	-768.15051	4.85646	643.45386	802.17719	11.98284	646.75824	12.46837	623.39923	-982.11761	
66	0.650	-696.75598	-3.85073	-575.62622	717.99579	5.17097	-491.22162	-768.11578	4.82714	643.43665	802.16461	11.93394	646.78973	12.52688	623.38361	-982.08026	
67	0.660	-696.78461	-3.86576	-575.65497	717.96619	5.20121	-491.22983	-768.13257	4.84018	643.44489	802.13605	11.94445	646.76843	12.54878	623.40186	-982.10956	
68	0.670	-696.77435	-3.83244	-575.63477	717.97803	5.18827	-491.23172	-768.13983	4.89145	643.42096	802.21210	11.96107	646.78796	12.50423	623.38507	-982.14520	
69	0.680	-696.79980	-3.80488	-575.63434	718.04944	5.21514	-491.15933	-768.17816	4.89831	643.42859	802.19177	12.07846	646.76105	12.48219	623.39563	-982.13611	
